<svg width="22" height="22" viewBox="0 0 22 22" xmlns="http://www.w3.org/2000/svg">
<path d="M16.7143 15.5714H8.71429C8.10808 15.5714 7.5267 15.3306 7.09804 14.902C6.66939 14.4733 6.42857 13.8919 6.42857 13.2857V5.28571C6.42857 4.67951 6.66939 4.09812 7.09804 3.66947C7.5267 3.24082 8.10808 3 8.71429 3H16.7143C17.3205 3 17.9019 3.24082 18.3305 3.66947C18.7592 4.09812 19 4.67951 19 5.28571V13.2857C19 13.8919 18.7592 14.4733 18.3305 14.902C17.9019 15.3306 17.3205 15.5714 16.7143 15.5714ZM17.8571 5.28571C17.8571 4.98261 17.7367 4.69192 17.5224 4.47759C17.3081 4.26326 17.0174 4.14286 16.7143 4.14286H8.71429C8.41118 4.14286 8.12049 4.26326 7.90616 4.47759C7.69184 4.69192 7.57143 4.98261 7.57143 5.28571V13.2857C7.57143 13.5888 7.69184 13.8795 7.90616 14.0938C8.12049 14.3082 8.41118 14.4286 8.71429 14.4286H16.7143C17.0174 14.4286 17.3081 14.3082 17.5224 14.0938C17.7367 13.8795 17.8571 13.5888 17.8571 13.2857V5.28571ZM13.2857 12.1429H12.1429V9.85714H9.85714V8.71429H12.1429V6.42857H13.2857V8.71429H15.5714V9.85714H13.2857V12.1429ZM5.28571 17.8571H13.2857C13.5888 17.8571 13.8795 17.7367 14.0938 17.5224C14.3082 17.3081 14.4286 17.0174 14.4286 16.7143H15.5714C15.5714 17.3205 15.3306 17.9019 14.902 18.3305C14.4733 18.7592 13.8919 19 13.2857 19H5.28571C4.67951 19 4.09812 18.7592 3.66947 18.3305C3.24082 17.9019 3 17.3205 3 16.7143V8.71429C3 8.10808 3.24082 7.5267 3.66947 7.09804C4.09812 6.66939 4.67951 6.42857 5.28571 6.42857V7.57143C4.98261 7.57143 4.69192 7.69184 4.47759 7.90616C4.26326 8.12049 4.14286 8.41118 4.14286 8.71429V16.7143C4.14286 17.0174 4.26326 17.3081 4.47759 17.5224C4.69192 17.7367 4.98261 17.8571 5.28571 17.8571Z" />
</svg>
