<svg width="22" height="22"  xmlns="http://www.w3.org/2000/svg">
<symbol viewBox="0 0 22 22" id="icon-view">
<path d="M7.46545 11.5C7.45005 10.5112 7.81185 9.55605 8.47243 8.84149C9.13302 8.12692 10.0391 7.71059 10.9944 7.68273C11.4732 7.68734 11.9465 7.78992 12.3869 7.98456C12.8273 8.17919 13.2262 8.46205 13.5605 8.81684C13.8949 9.17163 14.1581 9.59135 14.3351 10.0518C14.5121 10.5123 14.5993 11.0045 14.5918 11.5C14.5993 11.9955 14.5121 12.4877 14.3351 12.9482C14.1581 13.4087 13.8949 13.8284 13.5605 14.1832C13.2262 14.538 12.8273 14.8208 12.3869 15.0154C11.9465 15.2101 11.4732 15.3127 10.9944 15.3173C10.0391 15.2894 9.13302 14.8731 8.47243 14.1585C7.81185 13.444 7.45005 12.4888 7.46545 11.5V11.5ZM13.3355 11.5C13.3401 11.1777 13.283 10.8577 13.1677 10.5584C13.0523 10.259 12.881 9.98618 12.6634 9.75556C12.4459 9.52494 12.1864 9.34108 11.9 9.21453C11.6136 9.08799 11.3058 9.02126 10.9944 9.01818C10.3744 9.03675 9.78656 9.30793 9.35881 9.77271C8.93105 10.2375 8.69797 10.8583 8.71027 11.5C8.69797 12.1417 8.93105 12.7625 9.35881 13.2273C9.78656 13.6921 10.3744 13.9632 10.9944 13.9818C11.3067 13.9803 11.6157 13.9147 11.9035 13.7889C12.1912 13.663 12.452 13.4794 12.6708 13.2486C12.8896 13.0178 13.062 12.7445 13.178 12.4443C13.2941 12.1442 13.3515 11.8232 13.347 11.5H13.3355ZM9.85232 11.5C9.86191 11.2487 9.94367 11.0061 10.0872 10.8032C10.2307 10.6003 10.4294 10.4462 10.6579 10.3607C10.8864 10.2752 11.1344 10.2622 11.3701 10.3232C11.6058 10.3843 11.8186 10.5167 11.9812 10.7035C12.1439 10.8903 12.249 11.1231 12.2832 11.3721C12.3174 11.621 12.279 11.8749 12.1731 12.1012C12.0672 12.3275 11.8984 12.516 11.6885 12.6426C11.4785 12.7691 11.2368 12.8281 10.9944 12.8118C10.6784 12.7848 10.3842 12.634 10.172 12.3902C9.95976 12.1465 9.84542 11.828 9.85232 11.5ZM18.6346 12.9655C18.5915 13.0389 18.5345 13.1027 18.4671 13.1528C18.3996 13.2029 18.323 13.2384 18.242 13.2572C18.1609 13.276 18.077 13.2776 17.9954 13.262C17.9137 13.2464 17.8359 13.2138 17.7667 13.1664C17.6283 13.0659 17.5323 12.9144 17.4983 12.743C17.4643 12.5716 17.495 12.3933 17.5839 12.2445C17.7166 12.0248 17.787 11.7709 17.787 11.5118C17.787 11.2527 17.7166 10.9988 17.5839 10.7791C16.5447 9.12455 14.0436 6.33545 10.9944 6.33545C7.94511 6.33545 5.46688 9.12455 4.45046 10.7673C4.31548 10.9883 4.24384 11.2444 4.24384 11.5059C4.24384 11.7674 4.31548 12.0235 4.45046 12.2445C5.46688 13.8755 7.97937 16.6645 10.9944 16.6645C12.8665 16.5559 14.6276 15.7102 15.9166 14.3009C15.9731 14.239 16.0413 14.1898 16.1169 14.1561C16.1925 14.1224 16.2739 14.105 16.3562 14.105C16.4385 14.105 16.52 14.1224 16.5956 14.1561C16.6712 14.1898 16.7394 14.239 16.7959 14.3009C16.9132 14.4284 16.9787 14.5976 16.9787 14.7736C16.9787 14.9496 16.9132 15.1189 16.7959 15.2464C15.2785 16.9055 13.1994 17.8923 10.9944 18C9.23963 17.9559 7.55022 17.3024 6.19778 16.1445C5.10366 15.2536 4.16173 14.179 3.4112 12.9655C3.14225 12.5252 2.99948 12.015 2.99948 11.4941C2.99948 10.9732 3.14225 10.463 3.4112 10.0227C4.17063 8.81578 5.12027 7.74917 6.22062 6.86727C7.56543 5.71014 9.24615 5.05272 10.9944 5C12.7472 5.04642 14.4335 5.70444 15.7795 6.86727C16.8739 7.75339 17.8159 8.82416 18.5661 10.0345C18.8349 10.4718 18.9796 10.9784 18.9836 11.4966C18.9876 12.0148 18.8509 12.5238 18.5889 12.9655H18.6346Z" /></symbol>
</svg>
