<?xml version="1.0" encoding="UTF-8"?>
<!-- Generator: Adobe Illustrator 13.0.0, SVG Export Plug-In . SVG Version: 6.00 Build 14948)  -->
<!DOCTYPE svg PUBLIC "-//W3C//DTD SVG 1.1//EN" "http://www.w3.org/Graphics/SVG/1.1/DTD/svg11.dtd">
<svg version="1.1" id="svg3339" xmlns:rdf="http://www.w3.org/1999/02/22-rdf-syntax-ns#" xmlns:dc="http://purl.org/dc/elements/1.1/" xmlns:cc="http://creativecommons.org/ns#" xmlns="http://www.w3.org/2000/svg" xmlns:xlink="http://www.w3.org/1999/xlink" x="0px" y="0px" width="300px" height="100px" viewBox="0 0 300 100" enable-background="new 0 0 300 100" xml:space="preserve">
<g>
	<g>
		<g>
			<defs>
				<path id="SVGID_1_" d="M88.449,81.451c-2.556-0.942-4.805-2.301-6.687-4.03c-0.879-0.812-1.676-1.702-2.369-2.653      c-0.67-0.918-1.25-1.901-1.72-2.916c-0.46-0.99-0.822-2.021-1.073-3.063c-0.249-1.025-0.392-2.065-0.427-3.09      c0-0.002,0-0.006,0-0.009c0-0.134,0.104-0.245,0.238-0.253l6.769-0.449c0.007-0.003,0.012-0.003,0.017-0.003      c0.131,0,0.241,0.101,0.253,0.23c0.065,0.69,0.205,1.384,0.415,2.063c0.208,0.68,0.489,1.351,0.835,1.99      c0.349,0.645,0.766,1.27,1.24,1.85c0.484,0.595,1.033,1.152,1.629,1.655c1.257,1.061,2.723,1.894,4.357,2.471      c1.755,0.619,3.679,0.935,5.713,0.935c2.031,0,3.931-0.231,5.646-0.69c1.759-0.472,3.294-1.171,4.563-2.081      c1.323-0.951,2.347-2.126,3.046-3.488c0.738-1.443,1.114-3.111,1.114-4.949c0-1.019-0.118-1.989-0.35-2.886      c-0.221-0.854-0.553-1.672-0.989-2.427c-0.411-0.72-0.931-1.412-1.543-2.056c-0.575-0.605-1.255-1.192-2.021-1.747      c-0.716-0.52-1.505-1.012-2.413-1.503c-0.813-0.443-1.703-0.874-2.72-1.322c-1.896-0.837-3.978-1.61-5.991-2.354      c-1.071-0.397-2.158-0.801-3.239-1.221c-1.127-0.436,10.655-0.396,13.592-2.137c0.327,0.148,0.646,0.298,0.955,0.443      c0.89,0.428,1.706,0.851,2.474,1.287c1.168,0.663,2.194,1.332,3.132,2.05c1.016,0.774,1.921,1.602,2.695,2.464      c0.832,0.927,1.542,1.93,2.108,2.972c0.601,1.113,1.063,2.312,1.371,3.568c0.324,1.322,0.488,2.746,0.488,4.236      c0,2.666-0.409,5.125-1.216,7.306c-0.853,2.308-2.152,4.307-3.861,5.942c-0.89,0.854-1.903,1.618-3.012,2.271      c-1.141,0.673-2.412,1.246-3.775,1.704c-1.402,0.473-2.94,0.832-4.567,1.074c-1.677,0.245-3.49,0.371-5.396,0.371      C94.36,83.005,91.237,82.481,88.449,81.451 M161.523,82.034c-2.207-0.659-4.121-1.674-5.685-3.016      c-0.825-0.711-1.568-1.524-2.203-2.417c-0.657-0.927-1.219-1.961-1.666-3.076c-0.464-1.154-0.817-2.425-1.055-3.774      c-0.241-1.395-0.365-2.912-0.365-4.513V46.737l7.007,0.255v18.064c0,3.655,1.057,6.451,3.14,8.313      c1.003,0.895,2.255,1.578,3.72,2.029c1.456,0.447,3.142,0.673,5.015,0.673c1.774,0,3.741-0.202,5.849-0.605      c2.105-0.403,4.382-1.011,6.768-1.804c0.025-0.01,0.052-0.014,0.077-0.014c0.044,0,0.088,0.012,0.126,0.034      c0.063,0.036,0.108,0.094,0.124,0.166l1.263,5.776c0.004,0.02,0.006,0.035,0.006,0.056c0,0.104-0.063,0.197-0.166,0.235      c-2.499,0.951-5.029,1.694-7.522,2.209c-2.648,0.548-5.201,0.825-7.584,0.825C165.865,82.951,163.563,82.642,161.523,82.034       M248.104,82.011c-0.109,0-0.207-0.072-0.239-0.18c0,0-6.066-19.866-6.176-20.22c-0.364,0-18.024,0-18.395,0      c-0.105,0.359-5.904,20.216-5.904,20.216c-0.031,0.109-0.132,0.184-0.243,0.184h-7.043c-0.08,0-0.151-0.038-0.201-0.101      c-0.034-0.044-0.051-0.1-0.051-0.155c0-0.022,0.002-0.046,0.009-0.07l8.209-27.897l31.732,8.646l5.858,19.25      c0.008,0.024,0.01,0.048,0.01,0.072c0,0.056-0.016,0.107-0.048,0.151c-0.048,0.066-0.124,0.104-0.206,0.104H248.104       M195.123,82.011c-0.14,0-0.256-0.114-0.256-0.256c0,0,0-16.311,0-31.453c3.154,0.593,7.009,1.188,7.009,1.188v30.265      c0,0.142-0.115,0.256-0.253,0.256H195.123 M131.127,82.011c-0.14,0-0.255-0.114-0.255-0.256c0,0,0-18.951,0-34.96      c3.003-0.302,7.008-0.15,7.008-0.15v35.11c0,0.142-0.114,0.256-0.254,0.256H131.127 M38.249,82.011      c-0.142,0-0.256-0.114-0.256-0.256V64.246c0,0,3.13-1.49,7.007-2.979c0,6.634,0,14.092,0,14.367c0.499,0,23.216,0,23.216,0      c0.14,0,0.253,0.116,0.253,0.256v5.864c0,0.142-0.114,0.256-0.253,0.256H38.249"/>
			</defs>
			<linearGradient id="SVGID_2_" gradientUnits="userSpaceOnUse" x1="146.8315" y1="83.0049" x2="146.8315" y2="46.6074">
				<stop offset="0" style="stop-color:#D3AD33"/>
				<stop offset="1" style="stop-color:#F8EF75"/>
			</linearGradient>
			<use xlink:href="#SVGID_1_" overflow="visible" fill="url(#SVGID_2_)"/>
			<clipPath id="SVGID_3_">
				<use xlink:href="#SVGID_1_" overflow="visible"/>
			</clipPath>
			<use xlink:href="#SVGID_1_" overflow="visible" fill="none" stroke="#BE9F2F" stroke-width="0.25"/>
		</g>
		<g>
			<defs>
				<path id="SVGID_4_" d="M44.747,61.863v14.027h23.469v5.864H38.249V64.246L44.747,61.863z M119.303,64.336      c0,10.29-6.138,18.414-21.573,18.414c-13.992,0-21.031-9.024-21.302-17.061l6.77-0.451c0.541,5.687,5.868,11.193,14.443,11.193      c8.124,0,14.622-3.701,14.622-11.463c0-9.16-9.172-11.885-18.018-15.214c5.382-0.697,5.534-0.849,12.568-1.939      C113.585,50.985,119.303,55.506,119.303,64.336L119.303,64.336z M131.127,81.755V45.738h6.499v36.017H131.127L131.127,81.755z       M182.124,73.905l1.265,5.776c-14.262,5.415-32.586,5.146-32.586-14.443V45.89l6.5,0.168v18.999      C157.303,76.342,167.233,78.866,182.124,73.905L182.124,73.905z M195.123,81.755V49.537l6.5,1.444v30.773H195.123      L195.123,81.755z M248.104,81.755l-6.226-20.397h-18.773l-5.958,20.397h-7.043l8.01-27.214l31.73,8.894l5.572,18.32H248.104      L248.104,81.755z"/>
			</defs>
			<linearGradient id="SVGID_5_" gradientUnits="userSpaceOnUse" x1="146.8325" y1="82.75" x2="146.8325" y2="45.7388">
				<stop offset="0" style="stop-color:#D3AD33"/>
				<stop offset="1" style="stop-color:#F8EF75"/>
			</linearGradient>
			<use xlink:href="#SVGID_4_" overflow="visible" fill="url(#SVGID_5_)"/>
			<clipPath id="SVGID_6_">
				<use xlink:href="#SVGID_4_" overflow="visible"/>
			</clipPath>
			<use xlink:href="#SVGID_4_" overflow="visible" fill="none" stroke="#BE9F2F" stroke-width="0.25"/>
		</g>
	</g>
	<linearGradient id="SVGID_7_" gradientUnits="userSpaceOnUse" x1="144.062" y1="17.627" x2="144.062" y2="64.5854">
		<stop offset="0" style="stop-color:#1174A3"/>
		<stop offset="1" style="stop-color:#6580BF"/>
	</linearGradient>
	<path fill="url(#SVGID_7_)" stroke="#235782" stroke-width="0.25" d="M44.747,24.802v19.676h15.796l-2.077,6.317h-13.72v11.504   l-6.498,2.286V18.573h30.146v6.229H44.747L44.747,24.802z M94.644,49.905c-8.378-3.132-16.591-6.713-16.591-16.709   c0-7.582,6.318-15.524,20.309-15.524c6.229,0,9.567,0.993,13.18,2.708c0,0.09-0.903,2.888-1.985,6.138   c-3.521-1.535-7.132-2.437-11.013-2.437c-8.576,0-13.72,3.609-13.631,9.567c0.162,7.899,12.321,9.625,22.134,14.278   C102.478,49.793,97.598,49.132,94.644,49.905z M131.127,46.641V24.709l-5.958-0.18v-5.957h12.457v27.864L131.127,46.641z    M150.803,46.469V36.265c0-9.839,3.07-13.45,7.854-16.338c5.868-3.429,15.436-2.888,22.473,0.722l-1.892,5.146   c-3.16-1.173-6.502-1.806-9.479-1.806c-5.054,0-12.456,1.896-12.456,11.463v11.185L150.803,46.469z M195.123,50.34v-25.63   l-5.96-0.18v-5.957h12.46V51.77L195.123,50.34z M241.878,61.357l-17.604-4.875l-6.394-1.148l10.819-36.761h7.49l13.686,44.97   L241.878,61.357z M232.4,29.043l-7.584,25.635h15.436L232.4,29.043L232.4,29.043z"/>
	<path fill="none" stroke="#FFFFFF" stroke-width="2.5" d="M295.166,81.308c0,0-143.77-77.882-294.229-1.011"/>
	<path fill="none" stroke="#AEADAD" stroke-width="0.75" d="M295.166,81.308c0,0-143.77-77.882-294.229-1.011"/>
	<g>
		<path fill="#959595" d="M257.308,73.11h1.099v7.59h3.638v0.921h-4.736V73.11z"/>
		<path fill="#959595" d="M264.519,74.045v1.464h1.59v0.847h-1.59v3.294c0,0.759,0.216,1.188,0.835,1.188    c0.301,0,0.479-0.025,0.643-0.076l0.05,0.833c-0.214,0.088-0.553,0.164-0.982,0.164c-0.52,0-0.935-0.176-1.2-0.479    c-0.315-0.327-0.43-0.871-0.43-1.59v-3.334h-0.948v-0.847h0.948v-1.124L264.519,74.045z"/>
		<path fill="#959595" d="M272.563,72.654v7.387c0,0.543,0.012,1.162,0.05,1.58h-0.996l-0.05-1.061h-0.028    c-0.34,0.683-1.085,1.198-2.083,1.198c-1.477,0-2.613-1.25-2.613-3.104c-0.012-2.034,1.251-3.284,2.741-3.284    c0.933,0,1.565,0.439,1.843,0.933h0.026v-3.649H272.563z M271.453,77.996c0-0.138-0.014-0.328-0.052-0.466    c-0.164-0.707-0.77-1.288-1.603-1.288c-1.148,0-1.831,1.011-1.831,2.36c0,1.236,0.605,2.262,1.806,2.262    c0.743,0,1.426-0.493,1.628-1.326c0.038-0.152,0.052-0.304,0.052-0.479V77.996z"/>
	</g>
</g>
</svg>